<mxfile host="app.diagrams.net" modified="2024-01-03T05:42:11.463Z" agent="Mozilla/5.0 (Windows NT 10.0; Win64; x64) AppleWebKit/537.36 (KHTML, like Gecko) Chrome/120.0.0.0 Safari/537.36 Edg/120.0.0.0" etag="zEK7VTqluy5YF9EXD91D" version="22.1.16" type="github">
  <diagram name="페이지-1" id="BGNcM_PZ6w7HkBIBmL-b">
    <mxGraphModel dx="1426" dy="793" grid="1" gridSize="10" guides="1" tooltips="1" connect="1" arrows="1" fold="1" page="1" pageScale="1" pageWidth="827" pageHeight="1169" math="0" shadow="0">
      <root>
        <mxCell id="0" />
        <mxCell id="1" parent="0" />
        <mxCell id="1nU7kdwLqWXRDg3xbZw1-1" value="고객" style="rounded=0;whiteSpace=wrap;html=1;" parent="1" vertex="1">
          <mxGeometry x="320" y="440" width="70" height="40" as="geometry" />
        </mxCell>
        <mxCell id="1nU7kdwLqWXRDg3xbZw1-4" value="제품" style="rounded=0;whiteSpace=wrap;html=1;" parent="1" vertex="1">
          <mxGeometry x="720" y="440" width="70" height="40" as="geometry" />
        </mxCell>
        <mxCell id="1nU7kdwLqWXRDg3xbZw1-5" value="지역" style="rounded=0;whiteSpace=wrap;html=1;" parent="1" vertex="1">
          <mxGeometry x="320" y="750" width="70" height="40" as="geometry" />
        </mxCell>
        <mxCell id="1nU7kdwLqWXRDg3xbZw1-6" value="지역명" style="ellipse;whiteSpace=wrap;html=1;" parent="1" vertex="1">
          <mxGeometry x="355" y="815" width="100" height="50" as="geometry" />
        </mxCell>
        <mxCell id="1nU7kdwLqWXRDg3xbZw1-9" value="고객명" style="ellipse;whiteSpace=wrap;html=1;" parent="1" vertex="1">
          <mxGeometry x="180" y="360" width="100" height="50" as="geometry" />
        </mxCell>
        <mxCell id="1nU7kdwLqWXRDg3xbZw1-10" value="전화번호" style="ellipse;whiteSpace=wrap;html=1;" parent="1" vertex="1">
          <mxGeometry x="180" y="410" width="100" height="50" as="geometry" />
        </mxCell>
        <mxCell id="1nU7kdwLqWXRDg3xbZw1-11" value="이메일" style="ellipse;whiteSpace=wrap;html=1;" parent="1" vertex="1">
          <mxGeometry x="180" y="460" width="100" height="50" as="geometry" />
        </mxCell>
        <mxCell id="1nU7kdwLqWXRDg3xbZw1-13" value="기본주소" style="ellipse;whiteSpace=wrap;html=1;" parent="1" vertex="1">
          <mxGeometry x="50" y="490" width="100" height="50" as="geometry" />
        </mxCell>
        <mxCell id="1nU7kdwLqWXRDg3xbZw1-14" value="가입일" style="ellipse;whiteSpace=wrap;html=1;" parent="1" vertex="1">
          <mxGeometry x="180" y="560" width="100" height="50" as="geometry" />
        </mxCell>
        <mxCell id="1nU7kdwLqWXRDg3xbZw1-15" value="구매수량" style="ellipse;whiteSpace=wrap;html=1;" parent="1" vertex="1">
          <mxGeometry x="460" y="365" width="100" height="50" as="geometry" />
        </mxCell>
        <mxCell id="1nU7kdwLqWXRDg3xbZw1-16" value="구매일자" style="ellipse;whiteSpace=wrap;html=1;" parent="1" vertex="1">
          <mxGeometry x="560" y="365" width="100" height="50" as="geometry" />
        </mxCell>
        <mxCell id="1nU7kdwLqWXRDg3xbZw1-18" value="가격" style="ellipse;whiteSpace=wrap;html=1;" parent="1" vertex="1">
          <mxGeometry x="840" y="460" width="100" height="50" as="geometry" />
        </mxCell>
        <mxCell id="1nU7kdwLqWXRDg3xbZw1-19" value="구매" style="rhombus;whiteSpace=wrap;html=1;" parent="1" vertex="1">
          <mxGeometry x="520" y="435" width="80" height="50" as="geometry" />
        </mxCell>
        <mxCell id="1nU7kdwLqWXRDg3xbZw1-21" value="제품명" style="ellipse;whiteSpace=wrap;html=1;" parent="1" vertex="1">
          <mxGeometry x="840" y="360" width="100" height="50" as="geometry" />
        </mxCell>
        <mxCell id="1nU7kdwLqWXRDg3xbZw1-24" value="" style="endArrow=none;html=1;rounded=0;exitX=1;exitY=0.5;exitDx=0;exitDy=0;entryX=0;entryY=0.5;entryDx=0;entryDy=0;" parent="1" source="1nU7kdwLqWXRDg3xbZw1-58" target="1nU7kdwLqWXRDg3xbZw1-1" edge="1">
          <mxGeometry relative="1" as="geometry">
            <mxPoint x="310" y="370" as="sourcePoint" />
            <mxPoint x="470" y="370" as="targetPoint" />
          </mxGeometry>
        </mxCell>
        <mxCell id="1nU7kdwLqWXRDg3xbZw1-25" value="" style="endArrow=none;html=1;rounded=0;exitX=1;exitY=0.5;exitDx=0;exitDy=0;entryX=0;entryY=0.5;entryDx=0;entryDy=0;" parent="1" source="1nU7kdwLqWXRDg3xbZw1-9" target="1nU7kdwLqWXRDg3xbZw1-1" edge="1">
          <mxGeometry relative="1" as="geometry">
            <mxPoint x="300" y="435" as="sourcePoint" />
            <mxPoint x="385" y="565" as="targetPoint" />
          </mxGeometry>
        </mxCell>
        <mxCell id="1nU7kdwLqWXRDg3xbZw1-26" value="" style="endArrow=none;html=1;rounded=0;exitX=1;exitY=0.5;exitDx=0;exitDy=0;entryX=0;entryY=0.5;entryDx=0;entryDy=0;" parent="1" source="1nU7kdwLqWXRDg3xbZw1-10" target="1nU7kdwLqWXRDg3xbZw1-1" edge="1">
          <mxGeometry relative="1" as="geometry">
            <mxPoint x="300" y="545" as="sourcePoint" />
            <mxPoint x="385" y="675" as="targetPoint" />
          </mxGeometry>
        </mxCell>
        <mxCell id="1nU7kdwLqWXRDg3xbZw1-27" value="" style="endArrow=none;html=1;rounded=0;exitX=1;exitY=0.5;exitDx=0;exitDy=0;entryX=0;entryY=0.5;entryDx=0;entryDy=0;" parent="1" source="1nU7kdwLqWXRDg3xbZw1-14" target="1nU7kdwLqWXRDg3xbZw1-1" edge="1">
          <mxGeometry relative="1" as="geometry">
            <mxPoint x="200" y="670" as="sourcePoint" />
            <mxPoint x="285" y="800" as="targetPoint" />
          </mxGeometry>
        </mxCell>
        <mxCell id="1nU7kdwLqWXRDg3xbZw1-28" value="" style="endArrow=none;html=1;rounded=0;exitX=1;exitY=0.5;exitDx=0;exitDy=0;entryX=0;entryY=0.5;entryDx=0;entryDy=0;" parent="1" source="1nU7kdwLqWXRDg3xbZw1-11" target="1nU7kdwLqWXRDg3xbZw1-1" edge="1">
          <mxGeometry relative="1" as="geometry">
            <mxPoint x="310" y="585" as="sourcePoint" />
            <mxPoint x="395" y="715" as="targetPoint" />
          </mxGeometry>
        </mxCell>
        <mxCell id="1nU7kdwLqWXRDg3xbZw1-29" value="" style="endArrow=none;html=1;rounded=0;exitX=1;exitY=0.5;exitDx=0;exitDy=0;entryX=0;entryY=0.5;entryDx=0;entryDy=0;" parent="1" source="1nU7kdwLqWXRDg3xbZw1-64" target="1nU7kdwLqWXRDg3xbZw1-1" edge="1">
          <mxGeometry relative="1" as="geometry">
            <mxPoint x="280" y="555" as="sourcePoint" />
            <mxPoint x="370" y="780" as="targetPoint" />
          </mxGeometry>
        </mxCell>
        <mxCell id="1nU7kdwLqWXRDg3xbZw1-31" value="" style="endArrow=none;html=1;rounded=0;exitX=0.5;exitY=1;exitDx=0;exitDy=0;entryX=0.5;entryY=0;entryDx=0;entryDy=0;" parent="1" source="1nU7kdwLqWXRDg3xbZw1-5" target="1nU7kdwLqWXRDg3xbZw1-60" edge="1">
          <mxGeometry relative="1" as="geometry">
            <mxPoint x="325" y="810" as="sourcePoint" />
            <mxPoint x="305" y="815" as="targetPoint" />
          </mxGeometry>
        </mxCell>
        <mxCell id="1nU7kdwLqWXRDg3xbZw1-32" value="" style="endArrow=none;html=1;rounded=0;exitX=1;exitY=0.5;exitDx=0;exitDy=0;entryX=0;entryY=0.5;entryDx=0;entryDy=0;" parent="1" source="1nU7kdwLqWXRDg3xbZw1-42" target="1nU7kdwLqWXRDg3xbZw1-64" edge="1">
          <mxGeometry relative="1" as="geometry">
            <mxPoint x="280" y="650" as="sourcePoint" />
            <mxPoint x="180" y="535" as="targetPoint" />
          </mxGeometry>
        </mxCell>
        <mxCell id="1nU7kdwLqWXRDg3xbZw1-33" value="" style="endArrow=none;html=1;rounded=0;exitX=0.5;exitY=1;exitDx=0;exitDy=0;entryX=0.5;entryY=0;entryDx=0;entryDy=0;" parent="1" source="1nU7kdwLqWXRDg3xbZw1-5" target="1nU7kdwLqWXRDg3xbZw1-6" edge="1">
          <mxGeometry relative="1" as="geometry">
            <mxPoint x="325" y="810" as="sourcePoint" />
            <mxPoint x="335" y="1030" as="targetPoint" />
          </mxGeometry>
        </mxCell>
        <mxCell id="1nU7kdwLqWXRDg3xbZw1-34" value="" style="endArrow=none;html=1;rounded=0;exitX=1;exitY=0.5;exitDx=0;exitDy=0;entryX=0;entryY=0.5;entryDx=0;entryDy=0;" parent="1" source="1nU7kdwLqWXRDg3xbZw1-4" target="1nU7kdwLqWXRDg3xbZw1-61" edge="1">
          <mxGeometry relative="1" as="geometry">
            <mxPoint x="620" y="695" as="sourcePoint" />
            <mxPoint x="840" y="385" as="targetPoint" />
          </mxGeometry>
        </mxCell>
        <mxCell id="1nU7kdwLqWXRDg3xbZw1-35" value="" style="endArrow=none;html=1;rounded=0;exitX=0;exitY=0.5;exitDx=0;exitDy=0;entryX=1;entryY=0.5;entryDx=0;entryDy=0;" parent="1" source="1nU7kdwLqWXRDg3xbZw1-18" target="1nU7kdwLqWXRDg3xbZw1-4" edge="1">
          <mxGeometry relative="1" as="geometry">
            <mxPoint x="665" y="695" as="sourcePoint" />
            <mxPoint x="750" y="825" as="targetPoint" />
          </mxGeometry>
        </mxCell>
        <mxCell id="1nU7kdwLqWXRDg3xbZw1-36" value="" style="endArrow=none;html=1;rounded=0;exitX=1;exitY=0.5;exitDx=0;exitDy=0;entryX=0;entryY=0.5;entryDx=0;entryDy=0;" parent="1" source="1nU7kdwLqWXRDg3xbZw1-4" target="1nU7kdwLqWXRDg3xbZw1-81" edge="1">
          <mxGeometry relative="1" as="geometry">
            <mxPoint x="630" y="705" as="sourcePoint" />
            <mxPoint x="840" y="435" as="targetPoint" />
          </mxGeometry>
        </mxCell>
        <mxCell id="1nU7kdwLqWXRDg3xbZw1-37" value="" style="endArrow=none;html=1;rounded=0;exitX=1;exitY=0.5;exitDx=0;exitDy=0;entryX=0;entryY=0.5;entryDx=0;entryDy=0;" parent="1" source="1nU7kdwLqWXRDg3xbZw1-4" target="1nU7kdwLqWXRDg3xbZw1-21" edge="1">
          <mxGeometry relative="1" as="geometry">
            <mxPoint x="630" y="705" as="sourcePoint" />
            <mxPoint x="715" y="835" as="targetPoint" />
          </mxGeometry>
        </mxCell>
        <mxCell id="1nU7kdwLqWXRDg3xbZw1-38" value="" style="endArrow=none;html=1;rounded=0;exitX=0.5;exitY=1;exitDx=0;exitDy=0;entryX=0.5;entryY=0;entryDx=0;entryDy=0;" parent="1" source="1nU7kdwLqWXRDg3xbZw1-16" target="1nU7kdwLqWXRDg3xbZw1-19" edge="1">
          <mxGeometry relative="1" as="geometry">
            <mxPoint x="380" y="755" as="sourcePoint" />
            <mxPoint x="465" y="885" as="targetPoint" />
          </mxGeometry>
        </mxCell>
        <mxCell id="1nU7kdwLqWXRDg3xbZw1-39" value="" style="endArrow=none;html=1;rounded=0;exitX=0.5;exitY=1;exitDx=0;exitDy=0;entryX=0.5;entryY=0;entryDx=0;entryDy=0;" parent="1" source="1nU7kdwLqWXRDg3xbZw1-15" target="1nU7kdwLqWXRDg3xbZw1-19" edge="1">
          <mxGeometry relative="1" as="geometry">
            <mxPoint x="390" y="765" as="sourcePoint" />
            <mxPoint x="475" y="895" as="targetPoint" />
          </mxGeometry>
        </mxCell>
        <mxCell id="1nU7kdwLqWXRDg3xbZw1-42" value="상세주소" style="ellipse;whiteSpace=wrap;html=1;" parent="1" vertex="1">
          <mxGeometry x="50" y="540" width="100" height="50" as="geometry" />
        </mxCell>
        <mxCell id="1nU7kdwLqWXRDg3xbZw1-43" value="" style="endArrow=none;html=1;rounded=0;exitX=1;exitY=0.5;exitDx=0;exitDy=0;entryX=0;entryY=0.5;entryDx=0;entryDy=0;" parent="1" source="1nU7kdwLqWXRDg3xbZw1-13" target="1nU7kdwLqWXRDg3xbZw1-64" edge="1">
          <mxGeometry relative="1" as="geometry">
            <mxPoint x="290" y="660" as="sourcePoint" />
            <mxPoint x="180" y="535" as="targetPoint" />
          </mxGeometry>
        </mxCell>
        <mxCell id="1nU7kdwLqWXRDg3xbZw1-51" value="" style="endArrow=none;html=1;rounded=0;entryX=0.5;entryY=0;entryDx=0;entryDy=0;exitX=0.5;exitY=1;exitDx=0;exitDy=0;" parent="1" source="1nU7kdwLqWXRDg3xbZw1-1" target="1nU7kdwLqWXRDg3xbZw1-73" edge="1">
          <mxGeometry relative="1" as="geometry">
            <mxPoint x="355" y="530" as="sourcePoint" />
            <mxPoint x="480" y="470" as="targetPoint" />
          </mxGeometry>
        </mxCell>
        <mxCell id="1nU7kdwLqWXRDg3xbZw1-52" value="N" style="resizable=0;html=1;whiteSpace=wrap;align=left;verticalAlign=bottom;" parent="1nU7kdwLqWXRDg3xbZw1-51" connectable="0" vertex="1">
          <mxGeometry x="-1" relative="1" as="geometry">
            <mxPoint x="5" y="25" as="offset" />
          </mxGeometry>
        </mxCell>
        <mxCell id="1nU7kdwLqWXRDg3xbZw1-58" value="고객코드" style="ellipse;whiteSpace=wrap;html=1;align=center;fontStyle=4;" parent="1" vertex="1">
          <mxGeometry x="180" y="310" width="100" height="50" as="geometry" />
        </mxCell>
        <mxCell id="1nU7kdwLqWXRDg3xbZw1-60" value="지역코드" style="ellipse;whiteSpace=wrap;html=1;align=center;fontStyle=4;" parent="1" vertex="1">
          <mxGeometry x="255" y="815" width="100" height="50" as="geometry" />
        </mxCell>
        <mxCell id="1nU7kdwLqWXRDg3xbZw1-61" value="제품코드" style="ellipse;whiteSpace=wrap;html=1;align=center;fontStyle=4;" parent="1" vertex="1">
          <mxGeometry x="840" y="310" width="100" height="50" as="geometry" />
        </mxCell>
        <mxCell id="1nU7kdwLqWXRDg3xbZw1-64" value="주소" style="ellipse;whiteSpace=wrap;html=1;" parent="1" vertex="1">
          <mxGeometry x="180" y="510" width="100" height="50" as="geometry" />
        </mxCell>
        <mxCell id="1nU7kdwLqWXRDg3xbZw1-65" value="" style="endArrow=none;html=1;rounded=0;entryX=1;entryY=0.5;entryDx=0;entryDy=0;exitX=0;exitY=0.5;exitDx=0;exitDy=0;" parent="1" source="1nU7kdwLqWXRDg3xbZw1-19" target="1nU7kdwLqWXRDg3xbZw1-1" edge="1">
          <mxGeometry relative="1" as="geometry">
            <mxPoint x="334" y="350" as="sourcePoint" />
            <mxPoint x="494" y="350" as="targetPoint" />
          </mxGeometry>
        </mxCell>
        <mxCell id="1nU7kdwLqWXRDg3xbZw1-66" value="M" style="resizable=0;html=1;whiteSpace=wrap;align=left;verticalAlign=bottom;" parent="1nU7kdwLqWXRDg3xbZw1-65" connectable="0" vertex="1">
          <mxGeometry x="-1" relative="1" as="geometry">
            <mxPoint x="-120" y="25" as="offset" />
          </mxGeometry>
        </mxCell>
        <mxCell id="1nU7kdwLqWXRDg3xbZw1-68" value="" style="endArrow=none;html=1;rounded=0;entryX=1;entryY=0.5;entryDx=0;entryDy=0;exitX=0;exitY=0.5;exitDx=0;exitDy=0;" parent="1" source="1nU7kdwLqWXRDg3xbZw1-4" target="1nU7kdwLqWXRDg3xbZw1-19" edge="1">
          <mxGeometry relative="1" as="geometry">
            <mxPoint x="370" y="420" as="sourcePoint" />
            <mxPoint x="530" y="420" as="targetPoint" />
          </mxGeometry>
        </mxCell>
        <mxCell id="1nU7kdwLqWXRDg3xbZw1-70" value="N" style="resizable=0;html=1;whiteSpace=wrap;align=right;verticalAlign=bottom;" parent="1nU7kdwLqWXRDg3xbZw1-68" connectable="0" vertex="1">
          <mxGeometry x="1" relative="1" as="geometry">
            <mxPoint x="110" y="25" as="offset" />
          </mxGeometry>
        </mxCell>
        <mxCell id="1nU7kdwLqWXRDg3xbZw1-73" value="관리" style="rhombus;whiteSpace=wrap;html=1;" parent="1" vertex="1">
          <mxGeometry x="315" y="600" width="80" height="50" as="geometry" />
        </mxCell>
        <mxCell id="1nU7kdwLqWXRDg3xbZw1-74" value="" style="endArrow=none;html=1;rounded=0;entryX=0.5;entryY=0;entryDx=0;entryDy=0;exitX=0.5;exitY=1;exitDx=0;exitDy=0;" parent="1" source="1nU7kdwLqWXRDg3xbZw1-73" target="1nU7kdwLqWXRDg3xbZw1-5" edge="1">
          <mxGeometry relative="1" as="geometry">
            <mxPoint x="360" y="490" as="sourcePoint" />
            <mxPoint x="445" y="580" as="targetPoint" />
          </mxGeometry>
        </mxCell>
        <mxCell id="1nU7kdwLqWXRDg3xbZw1-76" value="1" style="resizable=0;html=1;whiteSpace=wrap;align=right;verticalAlign=bottom;" parent="1nU7kdwLqWXRDg3xbZw1-74" connectable="0" vertex="1">
          <mxGeometry x="1" relative="1" as="geometry">
            <mxPoint x="15" as="offset" />
          </mxGeometry>
        </mxCell>
        <mxCell id="1nU7kdwLqWXRDg3xbZw1-77" value="제품구분" style="ellipse;whiteSpace=wrap;html=1;" parent="1" vertex="1">
          <mxGeometry x="840" y="510" width="100" height="50" as="geometry" />
        </mxCell>
        <mxCell id="1nU7kdwLqWXRDg3xbZw1-78" value="고객" style="ellipse;whiteSpace=wrap;html=1;" parent="1" vertex="1">
          <mxGeometry x="840" y="560" width="100" height="50" as="geometry" />
        </mxCell>
        <mxCell id="1nU7kdwLqWXRDg3xbZw1-79" value="" style="endArrow=none;html=1;rounded=0;exitX=1;exitY=0.5;exitDx=0;exitDy=0;entryX=0;entryY=0.5;entryDx=0;entryDy=0;" parent="1" source="1nU7kdwLqWXRDg3xbZw1-4" target="1nU7kdwLqWXRDg3xbZw1-77" edge="1">
          <mxGeometry relative="1" as="geometry">
            <mxPoint x="850" y="545" as="sourcePoint" />
            <mxPoint x="800" y="470" as="targetPoint" />
          </mxGeometry>
        </mxCell>
        <mxCell id="1nU7kdwLqWXRDg3xbZw1-80" value="" style="endArrow=none;html=1;rounded=0;exitX=1;exitY=0.5;exitDx=0;exitDy=0;entryX=0;entryY=0.5;entryDx=0;entryDy=0;" parent="1" source="1nU7kdwLqWXRDg3xbZw1-4" target="1nU7kdwLqWXRDg3xbZw1-78" edge="1">
          <mxGeometry relative="1" as="geometry">
            <mxPoint x="800" y="470" as="sourcePoint" />
            <mxPoint x="850" y="595" as="targetPoint" />
          </mxGeometry>
        </mxCell>
        <mxCell id="1nU7kdwLqWXRDg3xbZw1-81" value="제품색상" style="ellipse;shape=doubleEllipse;margin=3;whiteSpace=wrap;html=1;align=center;" parent="1" vertex="1">
          <mxGeometry x="840" y="410" width="100" height="50" as="geometry" />
        </mxCell>
        <mxCell id="N8x8niKSiC8VCy3yFIy6-1" value="고객" style="shape=table;startSize=30;container=1;collapsible=1;childLayout=tableLayout;fixedRows=1;rowLines=0;fontStyle=1;align=center;resizeLast=1;html=1;" vertex="1" parent="1">
          <mxGeometry x="240" y="920" width="180" height="240" as="geometry" />
        </mxCell>
        <mxCell id="N8x8niKSiC8VCy3yFIy6-2" value="" style="shape=tableRow;horizontal=0;startSize=0;swimlaneHead=0;swimlaneBody=0;fillColor=none;collapsible=0;dropTarget=0;points=[[0,0.5],[1,0.5]];portConstraint=eastwest;top=0;left=0;right=0;bottom=1;" vertex="1" parent="N8x8niKSiC8VCy3yFIy6-1">
          <mxGeometry y="30" width="180" height="30" as="geometry" />
        </mxCell>
        <mxCell id="N8x8niKSiC8VCy3yFIy6-3" value="PK" style="shape=partialRectangle;connectable=0;fillColor=none;top=0;left=0;bottom=0;right=0;fontStyle=1;overflow=hidden;whiteSpace=wrap;html=1;" vertex="1" parent="N8x8niKSiC8VCy3yFIy6-2">
          <mxGeometry width="30" height="30" as="geometry">
            <mxRectangle width="30" height="30" as="alternateBounds" />
          </mxGeometry>
        </mxCell>
        <mxCell id="N8x8niKSiC8VCy3yFIy6-4" value="고객코드" style="shape=partialRectangle;connectable=0;fillColor=none;top=0;left=0;bottom=0;right=0;align=left;spacingLeft=6;fontStyle=5;overflow=hidden;whiteSpace=wrap;html=1;" vertex="1" parent="N8x8niKSiC8VCy3yFIy6-2">
          <mxGeometry x="30" width="150" height="30" as="geometry">
            <mxRectangle width="150" height="30" as="alternateBounds" />
          </mxGeometry>
        </mxCell>
        <mxCell id="N8x8niKSiC8VCy3yFIy6-5" value="" style="shape=tableRow;horizontal=0;startSize=0;swimlaneHead=0;swimlaneBody=0;fillColor=none;collapsible=0;dropTarget=0;points=[[0,0.5],[1,0.5]];portConstraint=eastwest;top=0;left=0;right=0;bottom=0;" vertex="1" parent="N8x8niKSiC8VCy3yFIy6-1">
          <mxGeometry y="60" width="180" height="30" as="geometry" />
        </mxCell>
        <mxCell id="N8x8niKSiC8VCy3yFIy6-6" value="" style="shape=partialRectangle;connectable=0;fillColor=none;top=0;left=0;bottom=0;right=0;editable=1;overflow=hidden;whiteSpace=wrap;html=1;" vertex="1" parent="N8x8niKSiC8VCy3yFIy6-5">
          <mxGeometry width="30" height="30" as="geometry">
            <mxRectangle width="30" height="30" as="alternateBounds" />
          </mxGeometry>
        </mxCell>
        <mxCell id="N8x8niKSiC8VCy3yFIy6-7" value="고객명" style="shape=partialRectangle;connectable=0;fillColor=none;top=0;left=0;bottom=0;right=0;align=left;spacingLeft=6;overflow=hidden;whiteSpace=wrap;html=1;" vertex="1" parent="N8x8niKSiC8VCy3yFIy6-5">
          <mxGeometry x="30" width="150" height="30" as="geometry">
            <mxRectangle width="150" height="30" as="alternateBounds" />
          </mxGeometry>
        </mxCell>
        <mxCell id="N8x8niKSiC8VCy3yFIy6-8" value="" style="shape=tableRow;horizontal=0;startSize=0;swimlaneHead=0;swimlaneBody=0;fillColor=none;collapsible=0;dropTarget=0;points=[[0,0.5],[1,0.5]];portConstraint=eastwest;top=0;left=0;right=0;bottom=0;" vertex="1" parent="N8x8niKSiC8VCy3yFIy6-1">
          <mxGeometry y="90" width="180" height="30" as="geometry" />
        </mxCell>
        <mxCell id="N8x8niKSiC8VCy3yFIy6-9" value="" style="shape=partialRectangle;connectable=0;fillColor=none;top=0;left=0;bottom=0;right=0;editable=1;overflow=hidden;whiteSpace=wrap;html=1;" vertex="1" parent="N8x8niKSiC8VCy3yFIy6-8">
          <mxGeometry width="30" height="30" as="geometry">
            <mxRectangle width="30" height="30" as="alternateBounds" />
          </mxGeometry>
        </mxCell>
        <mxCell id="N8x8niKSiC8VCy3yFIy6-10" value="전화번호" style="shape=partialRectangle;connectable=0;fillColor=none;top=0;left=0;bottom=0;right=0;align=left;spacingLeft=6;overflow=hidden;whiteSpace=wrap;html=1;" vertex="1" parent="N8x8niKSiC8VCy3yFIy6-8">
          <mxGeometry x="30" width="150" height="30" as="geometry">
            <mxRectangle width="150" height="30" as="alternateBounds" />
          </mxGeometry>
        </mxCell>
        <mxCell id="N8x8niKSiC8VCy3yFIy6-11" value="" style="shape=tableRow;horizontal=0;startSize=0;swimlaneHead=0;swimlaneBody=0;fillColor=none;collapsible=0;dropTarget=0;points=[[0,0.5],[1,0.5]];portConstraint=eastwest;top=0;left=0;right=0;bottom=0;" vertex="1" parent="N8x8niKSiC8VCy3yFIy6-1">
          <mxGeometry y="120" width="180" height="30" as="geometry" />
        </mxCell>
        <mxCell id="N8x8niKSiC8VCy3yFIy6-12" value="" style="shape=partialRectangle;connectable=0;fillColor=none;top=0;left=0;bottom=0;right=0;editable=1;overflow=hidden;whiteSpace=wrap;html=1;" vertex="1" parent="N8x8niKSiC8VCy3yFIy6-11">
          <mxGeometry width="30" height="30" as="geometry">
            <mxRectangle width="30" height="30" as="alternateBounds" />
          </mxGeometry>
        </mxCell>
        <mxCell id="N8x8niKSiC8VCy3yFIy6-13" value="이메일" style="shape=partialRectangle;connectable=0;fillColor=none;top=0;left=0;bottom=0;right=0;align=left;spacingLeft=6;overflow=hidden;whiteSpace=wrap;html=1;" vertex="1" parent="N8x8niKSiC8VCy3yFIy6-11">
          <mxGeometry x="30" width="150" height="30" as="geometry">
            <mxRectangle width="150" height="30" as="alternateBounds" />
          </mxGeometry>
        </mxCell>
        <mxCell id="N8x8niKSiC8VCy3yFIy6-66" value="" style="shape=tableRow;horizontal=0;startSize=0;swimlaneHead=0;swimlaneBody=0;fillColor=none;collapsible=0;dropTarget=0;points=[[0,0.5],[1,0.5]];portConstraint=eastwest;top=0;left=0;right=0;bottom=0;" vertex="1" parent="N8x8niKSiC8VCy3yFIy6-1">
          <mxGeometry y="150" width="180" height="30" as="geometry" />
        </mxCell>
        <mxCell id="N8x8niKSiC8VCy3yFIy6-67" value="" style="shape=partialRectangle;connectable=0;fillColor=none;top=0;left=0;bottom=0;right=0;editable=1;overflow=hidden;whiteSpace=wrap;html=1;" vertex="1" parent="N8x8niKSiC8VCy3yFIy6-66">
          <mxGeometry width="30" height="30" as="geometry">
            <mxRectangle width="30" height="30" as="alternateBounds" />
          </mxGeometry>
        </mxCell>
        <mxCell id="N8x8niKSiC8VCy3yFIy6-68" value="기본주소" style="shape=partialRectangle;connectable=0;fillColor=none;top=0;left=0;bottom=0;right=0;align=left;spacingLeft=6;overflow=hidden;whiteSpace=wrap;html=1;" vertex="1" parent="N8x8niKSiC8VCy3yFIy6-66">
          <mxGeometry x="30" width="150" height="30" as="geometry">
            <mxRectangle width="150" height="30" as="alternateBounds" />
          </mxGeometry>
        </mxCell>
        <mxCell id="N8x8niKSiC8VCy3yFIy6-69" value="" style="shape=tableRow;horizontal=0;startSize=0;swimlaneHead=0;swimlaneBody=0;fillColor=none;collapsible=0;dropTarget=0;points=[[0,0.5],[1,0.5]];portConstraint=eastwest;top=0;left=0;right=0;bottom=0;" vertex="1" parent="N8x8niKSiC8VCy3yFIy6-1">
          <mxGeometry y="180" width="180" height="30" as="geometry" />
        </mxCell>
        <mxCell id="N8x8niKSiC8VCy3yFIy6-70" value="" style="shape=partialRectangle;connectable=0;fillColor=none;top=0;left=0;bottom=0;right=0;editable=1;overflow=hidden;whiteSpace=wrap;html=1;" vertex="1" parent="N8x8niKSiC8VCy3yFIy6-69">
          <mxGeometry width="30" height="30" as="geometry">
            <mxRectangle width="30" height="30" as="alternateBounds" />
          </mxGeometry>
        </mxCell>
        <mxCell id="N8x8niKSiC8VCy3yFIy6-71" value="상세주소" style="shape=partialRectangle;connectable=0;fillColor=none;top=0;left=0;bottom=0;right=0;align=left;spacingLeft=6;overflow=hidden;whiteSpace=wrap;html=1;" vertex="1" parent="N8x8niKSiC8VCy3yFIy6-69">
          <mxGeometry x="30" width="150" height="30" as="geometry">
            <mxRectangle width="150" height="30" as="alternateBounds" />
          </mxGeometry>
        </mxCell>
        <mxCell id="N8x8niKSiC8VCy3yFIy6-91" value="" style="shape=tableRow;horizontal=0;startSize=0;swimlaneHead=0;swimlaneBody=0;fillColor=none;collapsible=0;dropTarget=0;points=[[0,0.5],[1,0.5]];portConstraint=eastwest;top=0;left=0;right=0;bottom=0;" vertex="1" parent="N8x8niKSiC8VCy3yFIy6-1">
          <mxGeometry y="210" width="180" height="30" as="geometry" />
        </mxCell>
        <mxCell id="N8x8niKSiC8VCy3yFIy6-92" value="" style="shape=partialRectangle;connectable=0;fillColor=none;top=0;left=0;bottom=0;right=0;editable=1;overflow=hidden;whiteSpace=wrap;html=1;" vertex="1" parent="N8x8niKSiC8VCy3yFIy6-91">
          <mxGeometry width="30" height="30" as="geometry">
            <mxRectangle width="30" height="30" as="alternateBounds" />
          </mxGeometry>
        </mxCell>
        <mxCell id="N8x8niKSiC8VCy3yFIy6-93" value="가입일" style="shape=partialRectangle;connectable=0;fillColor=none;top=0;left=0;bottom=0;right=0;align=left;spacingLeft=6;overflow=hidden;whiteSpace=wrap;html=1;" vertex="1" parent="N8x8niKSiC8VCy3yFIy6-91">
          <mxGeometry x="30" width="150" height="30" as="geometry">
            <mxRectangle width="150" height="30" as="alternateBounds" />
          </mxGeometry>
        </mxCell>
        <mxCell id="N8x8niKSiC8VCy3yFIy6-14" value="제품" style="shape=table;startSize=30;container=1;collapsible=1;childLayout=tableLayout;fixedRows=1;rowLines=0;fontStyle=1;align=center;resizeLast=1;html=1;" vertex="1" parent="1">
          <mxGeometry x="430" y="920" width="180" height="210" as="geometry" />
        </mxCell>
        <mxCell id="N8x8niKSiC8VCy3yFIy6-15" value="" style="shape=tableRow;horizontal=0;startSize=0;swimlaneHead=0;swimlaneBody=0;fillColor=none;collapsible=0;dropTarget=0;points=[[0,0.5],[1,0.5]];portConstraint=eastwest;top=0;left=0;right=0;bottom=1;" vertex="1" parent="N8x8niKSiC8VCy3yFIy6-14">
          <mxGeometry y="30" width="180" height="30" as="geometry" />
        </mxCell>
        <mxCell id="N8x8niKSiC8VCy3yFIy6-16" value="PK" style="shape=partialRectangle;connectable=0;fillColor=none;top=0;left=0;bottom=0;right=0;fontStyle=1;overflow=hidden;whiteSpace=wrap;html=1;" vertex="1" parent="N8x8niKSiC8VCy3yFIy6-15">
          <mxGeometry width="30" height="30" as="geometry">
            <mxRectangle width="30" height="30" as="alternateBounds" />
          </mxGeometry>
        </mxCell>
        <mxCell id="N8x8niKSiC8VCy3yFIy6-17" value="제품코드" style="shape=partialRectangle;connectable=0;fillColor=none;top=0;left=0;bottom=0;right=0;align=left;spacingLeft=6;fontStyle=5;overflow=hidden;whiteSpace=wrap;html=1;" vertex="1" parent="N8x8niKSiC8VCy3yFIy6-15">
          <mxGeometry x="30" width="150" height="30" as="geometry">
            <mxRectangle width="150" height="30" as="alternateBounds" />
          </mxGeometry>
        </mxCell>
        <mxCell id="N8x8niKSiC8VCy3yFIy6-18" value="" style="shape=tableRow;horizontal=0;startSize=0;swimlaneHead=0;swimlaneBody=0;fillColor=none;collapsible=0;dropTarget=0;points=[[0,0.5],[1,0.5]];portConstraint=eastwest;top=0;left=0;right=0;bottom=0;" vertex="1" parent="N8x8niKSiC8VCy3yFIy6-14">
          <mxGeometry y="60" width="180" height="30" as="geometry" />
        </mxCell>
        <mxCell id="N8x8niKSiC8VCy3yFIy6-19" value="" style="shape=partialRectangle;connectable=0;fillColor=none;top=0;left=0;bottom=0;right=0;editable=1;overflow=hidden;whiteSpace=wrap;html=1;" vertex="1" parent="N8x8niKSiC8VCy3yFIy6-18">
          <mxGeometry width="30" height="30" as="geometry">
            <mxRectangle width="30" height="30" as="alternateBounds" />
          </mxGeometry>
        </mxCell>
        <mxCell id="N8x8niKSiC8VCy3yFIy6-20" value="제품명" style="shape=partialRectangle;connectable=0;fillColor=none;top=0;left=0;bottom=0;right=0;align=left;spacingLeft=6;overflow=hidden;whiteSpace=wrap;html=1;" vertex="1" parent="N8x8niKSiC8VCy3yFIy6-18">
          <mxGeometry x="30" width="150" height="30" as="geometry">
            <mxRectangle width="150" height="30" as="alternateBounds" />
          </mxGeometry>
        </mxCell>
        <mxCell id="N8x8niKSiC8VCy3yFIy6-21" value="" style="shape=tableRow;horizontal=0;startSize=0;swimlaneHead=0;swimlaneBody=0;fillColor=none;collapsible=0;dropTarget=0;points=[[0,0.5],[1,0.5]];portConstraint=eastwest;top=0;left=0;right=0;bottom=0;" vertex="1" parent="N8x8niKSiC8VCy3yFIy6-14">
          <mxGeometry y="90" width="180" height="30" as="geometry" />
        </mxCell>
        <mxCell id="N8x8niKSiC8VCy3yFIy6-22" value="" style="shape=partialRectangle;connectable=0;fillColor=none;top=0;left=0;bottom=0;right=0;editable=1;overflow=hidden;whiteSpace=wrap;html=1;" vertex="1" parent="N8x8niKSiC8VCy3yFIy6-21">
          <mxGeometry width="30" height="30" as="geometry">
            <mxRectangle width="30" height="30" as="alternateBounds" />
          </mxGeometry>
        </mxCell>
        <mxCell id="N8x8niKSiC8VCy3yFIy6-23" value="제품색상" style="shape=partialRectangle;connectable=0;fillColor=none;top=0;left=0;bottom=0;right=0;align=left;spacingLeft=6;overflow=hidden;whiteSpace=wrap;html=1;" vertex="1" parent="N8x8niKSiC8VCy3yFIy6-21">
          <mxGeometry x="30" width="150" height="30" as="geometry">
            <mxRectangle width="150" height="30" as="alternateBounds" />
          </mxGeometry>
        </mxCell>
        <mxCell id="N8x8niKSiC8VCy3yFIy6-24" value="" style="shape=tableRow;horizontal=0;startSize=0;swimlaneHead=0;swimlaneBody=0;fillColor=none;collapsible=0;dropTarget=0;points=[[0,0.5],[1,0.5]];portConstraint=eastwest;top=0;left=0;right=0;bottom=0;" vertex="1" parent="N8x8niKSiC8VCy3yFIy6-14">
          <mxGeometry y="120" width="180" height="30" as="geometry" />
        </mxCell>
        <mxCell id="N8x8niKSiC8VCy3yFIy6-25" value="" style="shape=partialRectangle;connectable=0;fillColor=none;top=0;left=0;bottom=0;right=0;editable=1;overflow=hidden;whiteSpace=wrap;html=1;" vertex="1" parent="N8x8niKSiC8VCy3yFIy6-24">
          <mxGeometry width="30" height="30" as="geometry">
            <mxRectangle width="30" height="30" as="alternateBounds" />
          </mxGeometry>
        </mxCell>
        <mxCell id="N8x8niKSiC8VCy3yFIy6-26" value="가격" style="shape=partialRectangle;connectable=0;fillColor=none;top=0;left=0;bottom=0;right=0;align=left;spacingLeft=6;overflow=hidden;whiteSpace=wrap;html=1;" vertex="1" parent="N8x8niKSiC8VCy3yFIy6-24">
          <mxGeometry x="30" width="150" height="30" as="geometry">
            <mxRectangle width="150" height="30" as="alternateBounds" />
          </mxGeometry>
        </mxCell>
        <mxCell id="N8x8niKSiC8VCy3yFIy6-85" value="" style="shape=tableRow;horizontal=0;startSize=0;swimlaneHead=0;swimlaneBody=0;fillColor=none;collapsible=0;dropTarget=0;points=[[0,0.5],[1,0.5]];portConstraint=eastwest;top=0;left=0;right=0;bottom=0;" vertex="1" parent="N8x8niKSiC8VCy3yFIy6-14">
          <mxGeometry y="150" width="180" height="30" as="geometry" />
        </mxCell>
        <mxCell id="N8x8niKSiC8VCy3yFIy6-86" value="" style="shape=partialRectangle;connectable=0;fillColor=none;top=0;left=0;bottom=0;right=0;editable=1;overflow=hidden;whiteSpace=wrap;html=1;" vertex="1" parent="N8x8niKSiC8VCy3yFIy6-85">
          <mxGeometry width="30" height="30" as="geometry">
            <mxRectangle width="30" height="30" as="alternateBounds" />
          </mxGeometry>
        </mxCell>
        <mxCell id="N8x8niKSiC8VCy3yFIy6-87" value="제품구분" style="shape=partialRectangle;connectable=0;fillColor=none;top=0;left=0;bottom=0;right=0;align=left;spacingLeft=6;overflow=hidden;whiteSpace=wrap;html=1;" vertex="1" parent="N8x8niKSiC8VCy3yFIy6-85">
          <mxGeometry x="30" width="150" height="30" as="geometry">
            <mxRectangle width="150" height="30" as="alternateBounds" />
          </mxGeometry>
        </mxCell>
        <mxCell id="N8x8niKSiC8VCy3yFIy6-88" value="" style="shape=tableRow;horizontal=0;startSize=0;swimlaneHead=0;swimlaneBody=0;fillColor=none;collapsible=0;dropTarget=0;points=[[0,0.5],[1,0.5]];portConstraint=eastwest;top=0;left=0;right=0;bottom=0;" vertex="1" parent="N8x8niKSiC8VCy3yFIy6-14">
          <mxGeometry y="180" width="180" height="30" as="geometry" />
        </mxCell>
        <mxCell id="N8x8niKSiC8VCy3yFIy6-89" value="" style="shape=partialRectangle;connectable=0;fillColor=none;top=0;left=0;bottom=0;right=0;editable=1;overflow=hidden;whiteSpace=wrap;html=1;" vertex="1" parent="N8x8niKSiC8VCy3yFIy6-88">
          <mxGeometry width="30" height="30" as="geometry">
            <mxRectangle width="30" height="30" as="alternateBounds" />
          </mxGeometry>
        </mxCell>
        <mxCell id="N8x8niKSiC8VCy3yFIy6-90" value="고객" style="shape=partialRectangle;connectable=0;fillColor=none;top=0;left=0;bottom=0;right=0;align=left;spacingLeft=6;overflow=hidden;whiteSpace=wrap;html=1;" vertex="1" parent="N8x8niKSiC8VCy3yFIy6-88">
          <mxGeometry x="30" width="150" height="30" as="geometry">
            <mxRectangle width="150" height="30" as="alternateBounds" />
          </mxGeometry>
        </mxCell>
        <mxCell id="N8x8niKSiC8VCy3yFIy6-53" value="지역" style="shape=table;startSize=30;container=1;collapsible=1;childLayout=tableLayout;fixedRows=1;rowLines=0;fontStyle=1;align=center;resizeLast=1;html=1;" vertex="1" parent="1">
          <mxGeometry x="810" y="920" width="180" height="90" as="geometry" />
        </mxCell>
        <mxCell id="N8x8niKSiC8VCy3yFIy6-54" value="" style="shape=tableRow;horizontal=0;startSize=0;swimlaneHead=0;swimlaneBody=0;fillColor=none;collapsible=0;dropTarget=0;points=[[0,0.5],[1,0.5]];portConstraint=eastwest;top=0;left=0;right=0;bottom=1;" vertex="1" parent="N8x8niKSiC8VCy3yFIy6-53">
          <mxGeometry y="30" width="180" height="30" as="geometry" />
        </mxCell>
        <mxCell id="N8x8niKSiC8VCy3yFIy6-55" value="PK" style="shape=partialRectangle;connectable=0;fillColor=none;top=0;left=0;bottom=0;right=0;fontStyle=1;overflow=hidden;whiteSpace=wrap;html=1;" vertex="1" parent="N8x8niKSiC8VCy3yFIy6-54">
          <mxGeometry width="30" height="30" as="geometry">
            <mxRectangle width="30" height="30" as="alternateBounds" />
          </mxGeometry>
        </mxCell>
        <mxCell id="N8x8niKSiC8VCy3yFIy6-56" value="지역코드" style="shape=partialRectangle;connectable=0;fillColor=none;top=0;left=0;bottom=0;right=0;align=left;spacingLeft=6;fontStyle=5;overflow=hidden;whiteSpace=wrap;html=1;" vertex="1" parent="N8x8niKSiC8VCy3yFIy6-54">
          <mxGeometry x="30" width="150" height="30" as="geometry">
            <mxRectangle width="150" height="30" as="alternateBounds" />
          </mxGeometry>
        </mxCell>
        <mxCell id="N8x8niKSiC8VCy3yFIy6-57" value="" style="shape=tableRow;horizontal=0;startSize=0;swimlaneHead=0;swimlaneBody=0;fillColor=none;collapsible=0;dropTarget=0;points=[[0,0.5],[1,0.5]];portConstraint=eastwest;top=0;left=0;right=0;bottom=0;" vertex="1" parent="N8x8niKSiC8VCy3yFIy6-53">
          <mxGeometry y="60" width="180" height="30" as="geometry" />
        </mxCell>
        <mxCell id="N8x8niKSiC8VCy3yFIy6-58" value="" style="shape=partialRectangle;connectable=0;fillColor=none;top=0;left=0;bottom=0;right=0;editable=1;overflow=hidden;whiteSpace=wrap;html=1;" vertex="1" parent="N8x8niKSiC8VCy3yFIy6-57">
          <mxGeometry width="30" height="30" as="geometry">
            <mxRectangle width="30" height="30" as="alternateBounds" />
          </mxGeometry>
        </mxCell>
        <mxCell id="N8x8niKSiC8VCy3yFIy6-59" value="지역명" style="shape=partialRectangle;connectable=0;fillColor=none;top=0;left=0;bottom=0;right=0;align=left;spacingLeft=6;overflow=hidden;whiteSpace=wrap;html=1;" vertex="1" parent="N8x8niKSiC8VCy3yFIy6-57">
          <mxGeometry x="30" width="150" height="30" as="geometry">
            <mxRectangle width="150" height="30" as="alternateBounds" />
          </mxGeometry>
        </mxCell>
        <mxCell id="N8x8niKSiC8VCy3yFIy6-107" value="구매" style="shape=table;startSize=30;container=1;collapsible=1;childLayout=tableLayout;fixedRows=1;rowLines=0;fontStyle=1;align=center;resizeLast=1;html=1;" vertex="1" parent="1">
          <mxGeometry x="620" y="920" width="180" height="180" as="geometry" />
        </mxCell>
        <mxCell id="N8x8niKSiC8VCy3yFIy6-108" value="" style="shape=tableRow;horizontal=0;startSize=0;swimlaneHead=0;swimlaneBody=0;fillColor=none;collapsible=0;dropTarget=0;points=[[0,0.5],[1,0.5]];portConstraint=eastwest;top=0;left=0;right=0;bottom=1;" vertex="1" parent="N8x8niKSiC8VCy3yFIy6-107">
          <mxGeometry y="30" width="180" height="30" as="geometry" />
        </mxCell>
        <mxCell id="N8x8niKSiC8VCy3yFIy6-109" value="PK" style="shape=partialRectangle;connectable=0;fillColor=none;top=0;left=0;bottom=0;right=0;fontStyle=1;overflow=hidden;whiteSpace=wrap;html=1;" vertex="1" parent="N8x8niKSiC8VCy3yFIy6-108">
          <mxGeometry width="30" height="30" as="geometry">
            <mxRectangle width="30" height="30" as="alternateBounds" />
          </mxGeometry>
        </mxCell>
        <mxCell id="N8x8niKSiC8VCy3yFIy6-110" value="구매코드" style="shape=partialRectangle;connectable=0;fillColor=none;top=0;left=0;bottom=0;right=0;align=left;spacingLeft=6;fontStyle=5;overflow=hidden;whiteSpace=wrap;html=1;" vertex="1" parent="N8x8niKSiC8VCy3yFIy6-108">
          <mxGeometry x="30" width="150" height="30" as="geometry">
            <mxRectangle width="150" height="30" as="alternateBounds" />
          </mxGeometry>
        </mxCell>
        <mxCell id="N8x8niKSiC8VCy3yFIy6-111" value="" style="shape=tableRow;horizontal=0;startSize=0;swimlaneHead=0;swimlaneBody=0;fillColor=none;collapsible=0;dropTarget=0;points=[[0,0.5],[1,0.5]];portConstraint=eastwest;top=0;left=0;right=0;bottom=0;" vertex="1" parent="N8x8niKSiC8VCy3yFIy6-107">
          <mxGeometry y="60" width="180" height="30" as="geometry" />
        </mxCell>
        <mxCell id="N8x8niKSiC8VCy3yFIy6-112" value="FK" style="shape=partialRectangle;connectable=0;fillColor=none;top=0;left=0;bottom=0;right=0;editable=1;overflow=hidden;whiteSpace=wrap;html=1;" vertex="1" parent="N8x8niKSiC8VCy3yFIy6-111">
          <mxGeometry width="30" height="30" as="geometry">
            <mxRectangle width="30" height="30" as="alternateBounds" />
          </mxGeometry>
        </mxCell>
        <mxCell id="N8x8niKSiC8VCy3yFIy6-113" value="고객코드" style="shape=partialRectangle;connectable=0;fillColor=none;top=0;left=0;bottom=0;right=0;align=left;spacingLeft=6;overflow=hidden;whiteSpace=wrap;html=1;" vertex="1" parent="N8x8niKSiC8VCy3yFIy6-111">
          <mxGeometry x="30" width="150" height="30" as="geometry">
            <mxRectangle width="150" height="30" as="alternateBounds" />
          </mxGeometry>
        </mxCell>
        <mxCell id="N8x8niKSiC8VCy3yFIy6-114" value="" style="shape=tableRow;horizontal=0;startSize=0;swimlaneHead=0;swimlaneBody=0;fillColor=none;collapsible=0;dropTarget=0;points=[[0,0.5],[1,0.5]];portConstraint=eastwest;top=0;left=0;right=0;bottom=0;" vertex="1" parent="N8x8niKSiC8VCy3yFIy6-107">
          <mxGeometry y="90" width="180" height="30" as="geometry" />
        </mxCell>
        <mxCell id="N8x8niKSiC8VCy3yFIy6-115" value="FK" style="shape=partialRectangle;connectable=0;fillColor=none;top=0;left=0;bottom=0;right=0;editable=1;overflow=hidden;whiteSpace=wrap;html=1;" vertex="1" parent="N8x8niKSiC8VCy3yFIy6-114">
          <mxGeometry width="30" height="30" as="geometry">
            <mxRectangle width="30" height="30" as="alternateBounds" />
          </mxGeometry>
        </mxCell>
        <mxCell id="N8x8niKSiC8VCy3yFIy6-116" value="제품코드" style="shape=partialRectangle;connectable=0;fillColor=none;top=0;left=0;bottom=0;right=0;align=left;spacingLeft=6;overflow=hidden;whiteSpace=wrap;html=1;" vertex="1" parent="N8x8niKSiC8VCy3yFIy6-114">
          <mxGeometry x="30" width="150" height="30" as="geometry">
            <mxRectangle width="150" height="30" as="alternateBounds" />
          </mxGeometry>
        </mxCell>
        <mxCell id="N8x8niKSiC8VCy3yFIy6-117" value="" style="shape=tableRow;horizontal=0;startSize=0;swimlaneHead=0;swimlaneBody=0;fillColor=none;collapsible=0;dropTarget=0;points=[[0,0.5],[1,0.5]];portConstraint=eastwest;top=0;left=0;right=0;bottom=0;" vertex="1" parent="N8x8niKSiC8VCy3yFIy6-107">
          <mxGeometry y="120" width="180" height="30" as="geometry" />
        </mxCell>
        <mxCell id="N8x8niKSiC8VCy3yFIy6-118" value="" style="shape=partialRectangle;connectable=0;fillColor=none;top=0;left=0;bottom=0;right=0;editable=1;overflow=hidden;whiteSpace=wrap;html=1;" vertex="1" parent="N8x8niKSiC8VCy3yFIy6-117">
          <mxGeometry width="30" height="30" as="geometry">
            <mxRectangle width="30" height="30" as="alternateBounds" />
          </mxGeometry>
        </mxCell>
        <mxCell id="N8x8niKSiC8VCy3yFIy6-119" value="구매수량" style="shape=partialRectangle;connectable=0;fillColor=none;top=0;left=0;bottom=0;right=0;align=left;spacingLeft=6;overflow=hidden;whiteSpace=wrap;html=1;" vertex="1" parent="N8x8niKSiC8VCy3yFIy6-117">
          <mxGeometry x="30" width="150" height="30" as="geometry">
            <mxRectangle width="150" height="30" as="alternateBounds" />
          </mxGeometry>
        </mxCell>
        <mxCell id="N8x8niKSiC8VCy3yFIy6-120" value="" style="shape=tableRow;horizontal=0;startSize=0;swimlaneHead=0;swimlaneBody=0;fillColor=none;collapsible=0;dropTarget=0;points=[[0,0.5],[1,0.5]];portConstraint=eastwest;top=0;left=0;right=0;bottom=0;" vertex="1" parent="N8x8niKSiC8VCy3yFIy6-107">
          <mxGeometry y="150" width="180" height="30" as="geometry" />
        </mxCell>
        <mxCell id="N8x8niKSiC8VCy3yFIy6-121" value="" style="shape=partialRectangle;connectable=0;fillColor=none;top=0;left=0;bottom=0;right=0;editable=1;overflow=hidden;whiteSpace=wrap;html=1;" vertex="1" parent="N8x8niKSiC8VCy3yFIy6-120">
          <mxGeometry width="30" height="30" as="geometry">
            <mxRectangle width="30" height="30" as="alternateBounds" />
          </mxGeometry>
        </mxCell>
        <mxCell id="N8x8niKSiC8VCy3yFIy6-122" value="구매일자" style="shape=partialRectangle;connectable=0;fillColor=none;top=0;left=0;bottom=0;right=0;align=left;spacingLeft=6;overflow=hidden;whiteSpace=wrap;html=1;" vertex="1" parent="N8x8niKSiC8VCy3yFIy6-120">
          <mxGeometry x="30" width="150" height="30" as="geometry">
            <mxRectangle width="150" height="30" as="alternateBounds" />
          </mxGeometry>
        </mxCell>
      </root>
    </mxGraphModel>
  </diagram>
</mxfile>
